<svg viewBox="10 10 690 140" xmlns="http://www.w3.org/2000/svg">
  <polygon points="10,10 100,10 100,90 60,90 60,30 50,30 50,100 
    100,100 100,150 10,150 10,130 60,130 60,120 10,120" 
    style="fill:#f0f0f8" />
  <polygon points="110,10 200,10 200,120 180,120 180,130 200,130 
    200,150 150,150 150,130 160,130 160,30 150,30 150,150 110,150"
    style="fill:#f0f0f8" />
  <polygon points="210,10 250,10, 250,130 260,130 260,10 300,10 
    300,150 210,150" style="fill:#f0f0f8" />
  <polygon points="310,10 350,10 350,70 360,70 360,10 400,10 
    400,150 360,150 360,90 350,90 350,150 310,150" 
    style="fill:#f0f0f8" />
  <polygon points="410,10 500,10 500,150 410,150 410,70 450,70 
    450,130 460,130 460,90 450,90 450,70 460,70 460,30 450,30
    450,60 410,60" style="fill:#f0f0f8" />
  <polygon points="510,10 600,10 600,90 580,90 580,100 600,100
    600,150 560,150 560,90 550,90 550,70 560,70 560,30 550,30 
    550,150 510,150" style="fill:#f0f0f8" />
  <polygon points="610,10 700,10 700,90 650,90 650,70 660,70 
    660,30 650,30 650,130 660,130 660,100 700,100 700,150
    610,150," style="fill:#f0f0f8" />
</svg>